<svg xmlns="http://www.w3.org/2000/svg" xmlns:xlink="http://www.w3.org/1999/xlink" preserveAspectRatio="xMidYMid" width="13" height="11" viewBox="0 0 13 11">
  <defs>
    <style>
      .cls-1 {
        fill: #9e9e9d;
        fill-rule: evenodd;
      }
    </style>
  </defs>
  <path d="M12.825,9.184 L7.604,0.605 C7.373,0.226 6.960,-0.000 6.498,-0.000 C6.037,-0.000 5.623,0.226 5.393,0.605 L0.172,9.184 C-0.059,9.563 -0.059,10.016 0.172,10.394 C0.403,10.773 0.816,11.000 1.277,11.000 L11.720,11.000 C12.181,11.000 12.594,10.773 12.825,10.394 C13.056,10.016 13.055,9.563 12.825,9.184 ZM6.498,9.604 C6.040,9.604 5.667,9.251 5.667,8.816 C5.667,8.382 6.040,8.028 6.498,8.028 C6.957,8.028 7.329,8.382 7.329,8.816 C7.329,9.251 6.956,9.604 6.498,9.604 ZM7.335,6.235 C7.335,6.672 6.960,7.028 6.498,7.028 C6.037,7.028 5.662,6.672 5.662,6.235 L5.662,2.593 C5.662,2.386 5.839,2.217 6.058,2.217 L6.939,2.217 C7.158,2.217 7.335,2.386 7.335,2.593 L7.335,6.235 L7.335,6.235 Z" class="cls-1"/>
</svg>
